<svg width="17" height="17" viewBox="0 0 17 17" fill="none" xmlns="http://www.w3.org/2000/svg">
<path d="M7 14.6406C7 15.0569 6.85407 15.411 6.56222 15.7028C6.27037 15.9947 5.9163 16.1406 5.5 16.1406C5.0837 16.1406 4.72963 15.9947 4.43778 15.7028C4.14593 15.411 4 15.0569 4 14.6406C4 14.2243 4.14593 13.8703 4.43778 13.5784C4.72963 13.2866 5.0837 13.1406 5.5 13.1406C5.9163 13.1406 6.27037 13.2866 6.56222 13.5784C6.85407 13.8703 7 14.2243 7 14.6406ZM15.5 14.6406C15.5 15.0569 15.3541 15.411 15.0622 15.7028C14.7704 15.9947 14.4163 16.1406 14 16.1406C13.5837 16.1406 13.2296 15.9947 12.9378 15.7028C12.6459 15.411 12.5 15.0569 12.5 14.6406C12.5 14.2243 12.6459 13.8703 12.9378 13.5784C13.2296 13.2866 13.5837 13.1406 14 13.1406C14.4163 13.1406 14.7704 13.2866 15.0622 13.5784C15.3541 13.8703 15.5 14.2243 15.5 14.6406ZM14.5933 10.1406H5.5L5.29778 9.14062H14.5C14.7504 9.14062 14.9667 9.05766 15.1489 8.89174C15.3311 8.72433 15.4481 8.54137 15.5 8.34285L15.9067 6.14062L16.5 3.34285C16.5 3.291 16.5 3.25766 16.5 3.24285C16.5 3.22655 16.5 3.19248 16.5 3.14062C16.5 2.8384 16.4089 2.59618 16.2267 2.41396C16.0444 2.23174 15.8022 2.14062 15.5 2.14062H4.59333L4.5 1.04729C4.44815 0.796921 4.33111 0.583588 4.14889 0.407292C3.96667 0.229514 3.75037 0.140625 3.5 0.140625H1.5C1.19778 0.140625 0.955556 0.231736 0.773333 0.413958C0.591111 0.596181 0.5 0.838403 0.5 1.14062C0.5 1.44285 0.591111 1.68507 0.773333 1.86729C0.955556 2.04951 1.19778 2.14062 1.5 2.14062H2.59333L3.5 11.234C3.55185 11.4843 3.66889 11.6977 3.85111 11.874C4.03333 12.0517 4.24963 12.1406 4.5 12.1406C4.5 12.1406 4.50519 12.1406 4.51556 12.1406C4.52593 12.1406 4.55185 12.1406 4.59333 12.1406H14.5933C14.8437 12.1406 15.057 12.0362 15.2333 11.8273C15.4111 11.6199 15.5 11.391 15.5 11.1406C15.5 10.8903 15.4111 10.6614 15.2333 10.454C15.057 10.2451 14.8437 10.1406 14.5933 10.1406Z" fill="currentColor"/>
</svg>
