<svg width="18" height="13" viewBox="0 0 18 13" fill="none" xmlns="http://www.w3.org/2000/svg">
<path d="M12.4993 1.00033C12.4993 0.540088 12.8724 0.166992 13.3327 0.166992C13.8633 0.166992 14.3847 0.273612 14.8922 0.476595C15.4444 0.6975 15.8695 1.02533 16.2553 1.41107C16.641 1.79681 16.9688 2.22191 17.1897 2.77417C17.3927 3.28162 17.4993 3.80304 17.4993 4.33366C17.4993 4.86427 17.3927 5.38569 17.1897 5.89315C16.9716 6.43849 16.6492 6.85983 16.2698 7.24172L15.4493 8.14422C15.4404 8.154 15.4313 8.16357 15.4219 8.17291L12.7553 10.8396C12.3695 11.2253 11.9444 11.5532 11.3922 11.7741C10.8847 11.977 10.3633 12.0837 9.83268 12.0837C9.30207 12.0837 8.78065 11.977 8.27319 11.7741C7.72093 11.5532 7.29583 11.2253 6.91009 10.8396C6.52435 10.4538 6.19652 10.0287 5.97562 9.47648C5.76873 8.95926 5.66602 8.43736 5.66602 7.83366C5.66602 7.30304 5.77264 6.78162 5.97562 6.27417C6.19652 5.72191 6.52435 5.29681 6.91009 4.91107L7.82676 3.9944C8.1522 3.66897 8.67983 3.66897 9.00527 3.9944C9.33071 4.31984 9.33071 4.84748 9.00527 5.17291L8.0886 6.08958C7.80768 6.37051 7.63551 6.61208 7.52308 6.89315C7.39273 7.21903 7.33268 7.53094 7.33268 7.83366C7.33268 8.22995 7.39664 8.54139 7.52308 8.8575C7.63551 9.13857 7.80768 9.38014 8.0886 9.66107C8.36953 9.942 8.6111 10.1142 8.89217 10.2266C9.21805 10.3569 9.52996 10.417 9.83268 10.417C10.1354 10.417 10.4473 10.3569 10.7732 10.2266C11.0543 10.1142 11.2958 9.942 11.5768 9.66107L14.2294 7.00842L15.0494 6.10643C15.0583 6.09665 15.0674 6.08708 15.0768 6.07774C15.3577 5.79681 15.5299 5.55524 15.6423 5.27417C15.7726 4.94829 15.8327 4.63638 15.8327 4.33366C15.8327 4.03094 15.7726 3.71903 15.6423 3.39315C15.5299 3.11208 15.3577 2.87051 15.0768 2.58958C14.7958 2.30865 14.5543 2.13648 14.2732 2.02406C13.9473 1.89371 13.6354 1.83366 13.3327 1.83366C12.8724 1.83366 12.4993 1.46056 12.4993 1.00033ZM8.41602 2.25033C8.1133 2.25033 7.80138 2.31037 7.47551 2.44072C7.19444 2.55315 6.95286 2.72532 6.67194 3.00625L3.93596 5.74223L3.11597 6.64422C3.10707 6.654 3.09795 6.66357 3.0886 6.67291C2.80768 6.95384 2.63551 7.19541 2.52308 7.47648C2.39273 7.80236 2.33268 8.11427 2.33268 8.41699C2.33268 8.71971 2.39273 9.03162 2.52308 9.3575C2.63551 9.63857 2.80768 9.88014 3.0886 10.1611C3.36953 10.442 3.6111 10.6142 3.89217 10.7266C4.21805 10.8569 4.52996 10.917 4.83268 10.917C5.29292 10.917 5.66602 11.2901 5.66602 11.7503C5.66602 12.2106 5.29292 12.5837 4.83268 12.5837C4.30207 12.5837 3.78065 12.477 3.27319 12.2741C2.72093 12.0532 2.29583 11.7253 1.91009 11.3396C1.52435 10.9538 1.19652 10.5287 0.975618 9.97648C0.772635 9.46903 0.666016 8.94761 0.666016 8.41699C0.666016 7.88638 0.772635 7.36496 0.975618 6.8575C1.19375 6.31216 1.51615 5.89083 1.89561 5.50893L2.71607 4.60643C2.72496 4.59665 2.73408 4.58708 2.74343 4.57774L5.49343 1.82774C5.87917 1.442 6.30426 1.11417 6.85652 0.893262C7.36398 0.690279 7.8854 0.583659 8.41602 0.583659C8.94663 0.583659 9.46805 0.690279 9.97551 0.893262C10.5278 1.11417 10.9529 1.442 11.3386 1.82774C11.7243 2.21348 12.0522 2.63857 12.2731 3.19083C12.4761 3.69829 12.5827 4.21971 12.5827 4.75033C12.5827 5.28094 12.4761 5.80236 12.2731 6.30982C12.0547 6.85575 11.7318 7.27742 11.3518 7.65964L10.447 8.64676C10.136 8.98603 9.60884 9.00895 9.26958 8.69795C8.93031 8.38696 8.90739 7.85982 9.21839 7.52056L10.1351 6.52056C10.1432 6.51166 10.1516 6.50294 10.1601 6.4944C10.441 6.21348 10.6132 5.97191 10.7256 5.69083C10.856 5.36496 10.916 5.05304 10.916 4.75033C10.916 4.44761 10.856 4.13569 10.7256 3.80982C10.6132 3.52875 10.441 3.28717 10.1601 3.00625C9.87917 2.72532 9.6376 2.55315 9.35652 2.44072C9.03065 2.31037 8.71873 2.25033 8.41602 2.25033Z" fill="currentColor"/>
</svg>
